<?xml version="1.0" standalone="no"?>
<!DOCTYPE svg PUBLIC "-//W3C//DTD SVG 20010904//EN"
 "http://www.w3.org/TR/2001/REC-SVG-20010904/DTD/svg10.dtd">
<svg version="1.0" xmlns="http://www.w3.org/2000/svg"
 width="1037.000000pt" height="522.000000pt" viewBox="0 0 1037.000000 522.000000"
 preserveAspectRatio="xMidYMid meet">

<g transform="translate(0.000000,522.000000) scale(0.100000,-0.100000)"
fill="#e23022" stroke="none">
<path d="M9475 5190 c-101 -14 -205 -48 -301 -96 -162 -82 -270 -168 -639
-509 -166 -154 -250 -228 -740 -651 -203 -176 -505 -436 -670 -579 -165 -143
-502 -435 -750 -651 -247 -215 -614 -534 -815 -708 -200 -174 -370 -315 -377
-314 -6 2 -112 89 -235 194 -123 104 -333 284 -468 399 -262 224 -713 615
-1680 1461 -559 489 -998 870 -1361 1184 -234 203 -369 259 -649 267 -194 6
-282 -12 -445 -92 -129 -63 -214 -141 -264 -241 -51 -102 -64 -172 -58 -309
10 -203 74 -350 212 -490 44 -45 316 -283 604 -531 289 -247 687 -591 885
-764 448 -392 1818 -1584 1867 -1625 20 -16 247 -210 505 -430 546 -466 564
-481 661 -542 278 -173 601 -176 853 -8 67 46 396 324 1296 1100 354 305 1141
987 1364 1181 280 244 883 770 1059 923 80 69 204 178 276 241 73 63 212 185
311 270 212 183 271 243 328 330 121 184 139 439 44 638 -81 172 -228 281
-445 331 -104 24 -278 34 -368 21z"/>
</g>
</svg>
